<?xml version="1.0" encoding="UTF-8" standalone="no"?>
<!-- Created with Inkscape (http://www.inkscape.org/) -->

<svg
   width="256"
   height="256"
   viewBox="0 0 67.733332 67.733335"
   version="1.1"
   id="svg5"
   inkscape:version="1.1 (c68e22c387, 2021-05-23)"
   sodipodi:docname="crosshair.svg"
   inkscape:export-filename="P:\SkyknightsOnline\src\ships\marauder\weapons\colt\crosshair.png"
   inkscape:export-xdpi="96"
   inkscape:export-ydpi="96"
   xmlns:inkscape="http://www.inkscape.org/namespaces/inkscape"
   xmlns:sodipodi="http://sodipodi.sourceforge.net/DTD/sodipodi-0.dtd"
   xmlns="http://www.w3.org/2000/svg"
   xmlns:svg="http://www.w3.org/2000/svg">
  <sodipodi:namedview
     id="namedview7"
     pagecolor="#ffffff"
     bordercolor="#666666"
     borderopacity="1.0"
     inkscape:pageshadow="2"
     inkscape:pageopacity="0.0"
     inkscape:pagecheckerboard="true"
     inkscape:document-units="px"
     showgrid="false"
     units="px"
     inkscape:zoom="24.886869"
     inkscape:cx="124.00114"
     inkscape:cy="124.88514"
     inkscape:window-width="2560"
     inkscape:window-height="1377"
     inkscape:window-x="-8"
     inkscape:window-y="-8"
     inkscape:window-maximized="1"
     inkscape:current-layer="layer1" />
  <defs
     id="defs2" />
  <g
     inkscape:label="Layer 1"
     inkscape:groupmode="layer"
     id="layer1">
    <path
       id="path850"
       style="fill:#ffff00;fill-opacity:1;stroke:#000000;stroke-width:0.3;stroke-linecap:round;stroke-linejoin:round;stroke-miterlimit:4;stroke-dasharray:none;stroke-opacity:1"
       d="m 130.5,116.26367 v 2.05664 a 9.9999989,9.9999989 0 0 1 7.16016,7.17969 h 2.04882 A 12,11.999999 0 0 0 130.5,116.26367 Z m -5,0.006 A 12,11.999999 0 0 0 116.29297,125.5 h 2.04687 A 9.9999989,9.9999989 0 0 1 125.5,118.32031 Z M 116.29492,130.5 a 12,11.999999 0 0 0 9.20508,9.20117 v -2.04883 A 9.9999989,9.9999989 0 0 1 118.34766,130.5 Z m 21.36328,0 a 9.9999989,9.9999989 0 0 1 -7.1582,7.17773 v 2.05665 A 12,11.999999 0 0 0 139.70898,130.5 Z"
       transform="scale(0.26458333)" />
    <circle
       style="fill:#ffff00;fill-opacity:1;stroke:#000000;stroke-width:0.079375;stroke-linecap:round;stroke-linejoin:round;stroke-miterlimit:4;stroke-dasharray:none;stroke-opacity:1"
       id="path844"
       cx="33.866665"
       cy="33.866665"
       r="0.52916664" />
  </g>
</svg>
